<?xml version="1.0" encoding="UTF-8"?>
<svg version="1.1" xmlns="http://www.w3.org/2000/svg" width="512" height="512">
<path d="M0 0 C10.58765215 7.98747433 17.10374315 17.82178457 19.75 30.8125 C20.3790625 30.77769531 21.008125 30.74289063 21.65625 30.70703125 C29.0702465 30.47255245 34.32024705 31.60221477 40.5625 35.625 C44.23307872 39.29557872 45.71958704 42.29665425 45.82421875 47.51171875 C45.79972656 48.60097656 45.77523438 49.69023438 45.75 50.8125 C46.40431 50.80361755 47.05862 50.79473511 47.73275757 50.7855835 C54.57907321 50.69668476 61.42522328 50.63658983 68.27197266 50.59277344 C70.82282173 50.57273128 73.37362527 50.54549007 75.92431641 50.51074219 C79.6033048 50.4618997 83.28168259 50.43945619 86.9609375 50.421875 C88.09050873 50.40122986 89.22007996 50.38058472 90.38388062 50.35931396 C99.34090836 50.35680913 106.85431 51.90898907 113.625 58.0625 C119.58424575 64.6120484 121.87002103 71.59096917 121.88142776 80.36892319 C121.88526891 81.48104793 121.88911005 82.59317268 121.8930676 83.73899817 C121.89220112 84.95561645 121.89133463 86.17223472 121.89044189 87.42572021 C121.89489858 89.37045774 121.89489858 89.37045774 121.8994453 91.35448289 C121.90750396 94.95151507 121.90930423 98.54852728 121.91004276 102.14556742 C121.91189528 106.02572062 121.91944359 109.90586351 121.92617798 113.78601074 C121.93975348 122.26951805 121.94578472 130.75302062 121.95018864 139.23653698 C121.95295222 144.5344649 121.95718977 149.832391 121.96169281 155.13031769 C121.97388415 169.80121114 121.98418393 184.47210314 121.9875679 199.14300156 C121.98778747 200.08176227 121.98800703 201.02052299 121.98823325 201.98773099 C121.98845153 202.92872482 121.98866981 203.86971865 121.9888947 204.83922744 C121.98933817 206.7460084 121.98978473 208.65278936 121.99023438 210.55957031 C121.9904558 211.50539751 121.99067723 212.4512247 121.99090537 213.42571333 C121.99485339 228.75147157 122.01230814 244.07718225 122.0355939 259.40292212 C122.05931271 275.14080847 122.07176998 290.87867097 122.07293582 306.61657548 C122.07385225 315.45156078 122.07959655 324.28648411 122.09775543 333.12145233 C122.11316352 340.64450673 122.11827268 348.16748002 122.11001733 355.6905472 C122.10611341 359.52761295 122.10702773 363.36451537 122.12107468 367.20156097 C122.13617668 371.36494007 122.12793955 375.52795191 122.11749268 379.69134521 C122.12957728 381.50288829 122.12957728 381.50288829 122.14190602 383.3510282 C122.08264265 393.44632584 120.36648223 401.82940666 113.25390625 409.40625 C104.42201504 417.72821678 93.88104156 417.25762986 82.39819336 417.24487305 C80.75155914 417.25390101 79.10493162 417.26423076 77.45831299 417.27575684 C73.01062269 417.30323152 68.56306025 417.31259835 64.11529613 417.31861091 C59.45877608 417.32801948 54.8023506 417.35422483 50.14588928 417.37861633 C41.33825678 417.42221685 32.5306427 417.45080338 23.72293526 417.47393972 C13.69142385 417.50102601 3.66000787 417.54493538 -6.37143528 417.59022844 C-26.99757212 417.68298233 -47.62373752 417.75470539 -68.25 417.8125 C-67.69570312 418.33199219 -67.14140625 418.85148437 -66.5703125 419.38671875 C-65.84585938 420.08410156 -65.12140625 420.78148437 -64.375 421.5 C-63.65570313 422.18449219 -62.93640625 422.86898438 -62.1953125 423.57421875 C-59.11408133 427.11949076 -57.96240093 430.59352581 -57.9375 435.25 C-57.92074219 435.97058594 -57.90398437 436.69117188 -57.88671875 437.43359375 C-58.81686006 443.52451912 -62.62730709 447.62842232 -66.87109375 451.796875 C-67.41226334 452.33854309 -67.95343292 452.88021118 -68.51100159 453.43829346 C-69.64965419 454.57461795 -70.79197098 455.70728143 -71.93774414 456.83642578 C-73.68753608 458.56253559 -75.42353372 460.30167566 -77.15820312 462.04296875 C-78.27004226 463.14923313 -79.38264671 464.25472898 -80.49609375 465.359375 C-81.01288193 465.87707458 -81.5296701 466.39477417 -82.06211853 466.92816162 C-86.45463404 471.23532209 -89.40414304 473.10039453 -95.5625 473.1875 C-103.38759331 473.00069406 -107.24152823 469.94503735 -112.5 464.5625 C-113.14453125 463.85609375 -113.7890625 463.1496875 -114.453125 462.421875 C-116.22041307 460.47891327 -116.22041307 460.47891327 -119.25 460.8125 C-119.20359375 462.04226563 -119.1571875 463.27203125 -119.109375 464.5390625 C-119.07183964 466.1718506 -119.03544138 467.80466511 -119 469.4375 C-118.96648437 470.24574219 -118.93296875 471.05398438 -118.8984375 471.88671875 C-118.80918361 477.37583325 -119.47021321 480.54459504 -123.25 484.8125 C-128.42616868 489.14553915 -132.49512789 489.43961158 -138.9609375 489.44921875 C-139.88790436 489.46016068 -140.81487122 489.4711026 -141.76992798 489.4823761 C-143.7248175 489.49819555 -145.67981768 489.50345081 -147.63476562 489.4987793 C-150.60996475 489.49999386 -153.58024171 489.55978698 -156.5546875 489.62304688 C-158.46092555 489.63119011 -160.36718225 489.63586105 -162.2734375 489.63671875 C-163.1538974 489.66029953 -164.0343573 489.68388031 -164.9414978 489.70817566 C-171.13978667 489.61690973 -174.2466564 487.87112918 -178.70806885 483.60240173 C-182.60765004 479.07569694 -182.60885005 473.659724 -182.875 467.9375 C-182.91367188 467.24914062 -182.95234375 466.56078125 -182.9921875 465.8515625 C-183.08548166 464.17226754 -183.16878238 462.49242233 -183.25 460.8125 C-186.64415616 462.26713835 -188.73024162 464.13525672 -191.25 466.8125 C-194.55652889 470.32568695 -196.96039946 472.51505945 -201.8359375 473.1484375 C-202.75632813 473.16132813 -203.67671875 473.17421875 -204.625 473.1875 C-205.54023438 473.21585937 -206.45546875 473.24421875 -207.3984375 473.2734375 C-213.51289442 472.28507323 -217.94087639 467.46498754 -222.234375 463.26953125 C-222.77604309 462.74163498 -223.31771118 462.21373871 -223.87579346 461.66984558 C-225.01133417 460.55743671 -226.14401019 459.44209668 -227.27392578 458.32397461 C-228.99400045 456.63090536 -230.73657021 454.96339398 -232.48046875 453.29492188 C-242.78244203 443.23689263 -242.78244203 443.23689263 -243.25 434.8125 C-242.76444169 427.28634612 -238.54126762 423.3942916 -233.46484375 418.23046875 C-231.06682463 415.94231718 -231.06682463 415.94231718 -230.25 412.8125 C-231.64412109 412.84730469 -231.64412109 412.84730469 -233.06640625 412.8828125 C-248.74319491 413.11167073 -248.74319491 413.11167073 -253.18359375 409.0390625 C-258.74897254 403.01456796 -259.40680096 398.91191609 -259.453125 390.79296875 C-259.45882507 390.01617264 -259.46452515 389.23937653 -259.47039795 388.43904114 C-259.47982748 386.79750929 -259.48637379 385.15595869 -259.49023438 383.5144043 C-259.4999261 381.01902762 -259.53096219 378.52447999 -259.5625 376.02929688 C-259.56903231 374.42969236 -259.57428189 372.83008199 -259.578125 371.23046875 C-259.5904718 370.49168991 -259.6028186 369.75291107 -259.61553955 368.991745 C-259.58808429 362.52100915 -258.08765858 357.92580737 -253.75 352.9375 C-250.49083017 350.16720565 -248.15758489 349.68549585 -244.01953125 349.71484375 C-242.81586914 349.71967773 -242.81586914 349.71967773 -241.58789062 349.72460938 C-240.75451172 349.73298828 -239.92113281 349.74136719 -239.0625 349.75 C-237.7950293 349.75676758 -237.7950293 349.75676758 -236.50195312 349.76367188 C-234.41793845 349.77544597 -232.33396023 349.7933811 -230.25 349.8125 C-231.03833376 346.02879322 -232.26975193 344.51584299 -235.125 341.875 C-240.25568789 336.90034377 -243.00416762 333.18747141 -243.25 325.8125 C-241.62432908 316.55082052 -235.64539255 311.41989424 -229.13500977 305.13500977 C-227.30648999 303.36919609 -225.50055606 301.58255346 -223.69726562 299.79101562 C-222.54030412 298.65238285 -221.38214189 297.51496856 -220.22265625 296.37890625 C-219.68399429 295.84874405 -219.14533234 295.31858185 -218.59034729 294.77235413 C-214.08932681 290.44073285 -211.12955731 288.52509884 -204.875 288.4375 C-197.41062111 288.6154587 -194.07136371 291.94577525 -189 297.0625 C-188.00226563 298.12210937 -188.00226563 298.12210937 -186.984375 299.203125 C-185.39999709 301.03923259 -185.39999709 301.03923259 -183.25 300.8125 C-183.21261719 299.81089844 -183.17523438 298.80929687 -183.13671875 297.77734375 C-182.51942856 284.3453791 -182.51942856 284.3453791 -179.25 278.8125 C-178.72915298 278.42670588 -178.20830595 278.04091175 -177.67167568 277.6434269 C-175.37684447 274.68799322 -175.84327393 271.35721258 -175.87818909 267.76766968 C-175.87436452 266.93841181 -175.87053996 266.10915395 -175.8665995 265.25476706 C-175.85728647 262.46573658 -175.86932362 259.6771989 -175.88110352 256.88818359 C-175.8786365 254.89251499 -175.87479911 252.89684767 -175.86968994 250.90118408 C-175.86133863 246.59755524 -175.86217098 242.29405865 -175.86987495 237.99042892 C-175.88143943 231.1826539 -175.86930973 224.37504963 -175.85325623 217.56729126 C-175.81702577 200.65229327 -175.81082967 183.73729887 -175.81335449 166.82226562 C-175.81506612 153.68812054 -175.8079218 140.55411451 -175.77337593 127.4200083 C-175.75658974 120.65598203 -175.75837092 113.89229478 -175.77419865 107.12826991 C-175.78000401 102.91261153 -175.76923968 98.69711311 -175.75395203 94.48148346 C-175.75023185 92.5308426 -175.75331631 90.58017468 -175.76382256 88.62955856 C-175.77724391 85.95904744 -175.76594094 83.28969755 -175.74879456 80.61923218 C-175.75860133 79.85374066 -175.76840811 79.08824914 -175.77851206 78.2995609 C-175.6716496 70.20838231 -172.3930364 63.26946231 -166.96484375 57.31640625 C-161.86232073 52.84152843 -155.65832051 50.68334308 -148.95239258 50.69897461 C-147.33105156 50.69908791 -147.33105156 50.69908791 -145.67695618 50.69920349 C-144.51125595 50.70436478 -143.34555573 50.70952606 -142.14453125 50.71484375 C-140.95018967 50.7162587 -139.75584808 50.71767365 -138.52531433 50.71913147 C-134.70435092 50.7247365 -130.88344575 50.73728989 -127.0625 50.75 C-124.47461022 50.75501435 -121.88671952 50.75957737 -119.29882812 50.76367188 C-112.94919882 50.77470757 -106.59960357 50.79145064 -100.25 50.8125 C-100.12109375 49.55953125 -99.9921875 48.3065625 -99.859375 47.015625 C-99.29915851 41.57032069 -96.81140122 38.29172221 -92.875 34.5625 C-86.5583797 30.3514198 -80.59572461 30.57722768 -73.25 30.8125 C-73.20875 29.905 -73.1675 28.9975 -73.125 28.0625 C-71.62126726 17.76610774 -64.89212322 8.09910531 -56.74609375 1.91015625 C-53.97972291 0.04885695 -51.18289974 -1.60269098 -48.25 -3.1875 C-47.44175781 -3.62449219 -46.63351563 -4.06148437 -45.80078125 -4.51171875 C-31.41959764 -10.94600027 -12.89594274 -8.3765187 0 0 Z " fill="#2B1663" transform="translate(272.25,15.1875)"/>
<path d="M0 0 C11.22 0 22.44 0 34 0 C35.32 3.3 36.64 6.6 38 10 C40.78447311 14.51276676 43.96291552 16.56164181 49 18 C52.80444989 18.43344087 56.58187114 18.43053698 60.40795898 18.41992188 C61.53729858 18.42839142 62.66663818 18.43686096 63.8302002 18.44558716 C67.5522802 18.46892922 71.27394618 18.46997999 74.99609375 18.46875 C77.59009465 18.4758528 80.18409398 18.48355198 82.77809143 18.49182129 C88.21091723 18.50525943 93.64358191 18.50701939 99.07641602 18.50097656 C105.34152157 18.49433589 111.60603837 18.51720923 117.87102455 18.55429029 C123.91683488 18.58876533 129.96233393 18.59531808 136.00825691 18.59120178 C138.57225359 18.59289319 141.13625802 18.60253755 143.70019341 18.62034607 C147.28815059 18.64252679 150.87469336 18.63283647 154.46264648 18.61523438 C155.51692337 18.62849762 156.57120026 18.64176086 157.65742493 18.65542603 C164.36686586 18.57910211 168.80261224 17.34304069 174 13 C175.8598399 11.06133601 175.8598399 11.06133601 176.9375 9 C177.50791016 8.0409375 177.50791016 8.0409375 178.08984375 7.0625 C179.26941356 4.59093718 179.26941356 4.59093718 180 0 C191.55 0 203.1 0 215 0 C215 93.72 215 187.44 215 284 C174.41 284 133.82 284 92 284 C91.505 276.575 91.505 276.575 91 269 C86.91474054 262.70433467 86.91474054 262.70433467 81 259 C77.87212503 258.42206907 74.80058522 258.30571202 71.625 258.25 C70.37783203 258.20552734 70.37783203 258.20552734 69.10546875 258.16015625 C67.07082173 258.08999601 65.03540909 258.04267105 63 258 C62.36010742 256.16381836 62.36010742 256.16381836 62 254 C63.71892417 251.9870888 65.35532611 250.31264197 67.3125 248.5625 C72.04415869 244.27127244 74.65447255 241.10974709 75.375 234.625 C74.66218365 227.73444196 70.53615295 223.15547581 65.7890625 218.390625 C65.2984433 217.89713562 64.8078241 217.40364624 64.30233765 216.89520264 C63.2722956 215.86313549 62.23852109 214.8347809 61.20117188 213.81005859 C59.62526956 212.2502668 58.06607878 210.67504537 56.5078125 209.09765625 C55.49835654 208.09018232 54.48797056 207.08363919 53.4765625 206.078125 C52.56986816 205.17481445 51.66317383 204.27150391 50.72900391 203.34082031 C46.32335929 199.56185086 42.0843017 197.28103186 36.14453125 197.51953125 C30.3193761 198.82462066 25.68610502 203.14473776 21.6875 207.375 C19 210 19 210 15 210 C14.96132812 208.15535156 14.96132812 208.15535156 14.921875 206.2734375 C14.86556994 204.64059068 14.80822315 203.00777955 14.75 201.375 C14.73582031 200.56675781 14.72164062 199.75851562 14.70703125 198.92578125 C14.45080414 192.62259443 12.86180546 188.67101843 8.125 184.25 C5.48125322 182.59549108 5.48125322 182.59549108 0 181 C0 121.27 0 61.54 0 0 Z " fill="#FDFAFD" transform="translate(138,107)"/>
<path d="M0 0 C0.8098938 -0.00145523 1.6197876 -0.00291046 2.45422363 -0.00440979 C4.16564534 -0.00275064 5.87708193 0.00881263 7.58837891 0.02954102 C10.20930295 0.05848941 12.82820376 0.05015292 15.44921875 0.03710938 C17.11198901 0.04334707 18.77475287 0.05173825 20.4375 0.0625 C21.22193481 0.05956436 22.00636963 0.05662872 22.8145752 0.05360413 C28.14999211 0.14620124 28.14999211 0.14620124 30.71533203 1.72436523 C32.02349954 4.03418801 32.07237937 5.62659559 32.0546875 8.27734375 C32.07402344 9.66373047 32.07402344 9.66373047 32.09375 11.078125 C32.09375 13.02345319 32.08593712 14.96879706 32.0703125 16.9140625 C32.11400661 19.52478548 32.18853888 21.93855387 32.71875 24.49609375 C34.95530708 26.7066449 34.95530708 26.7066449 37.71875 27.49609375 C38.523125 27.88796875 39.3275 28.27984375 40.15625 28.68359375 C43.38542764 29.70747934 45.33091448 29.97308142 48.71875 29.49609375 C51.19562374 27.61294731 53.17447447 25.33171497 55.21875 22.99609375 C56.29727978 21.76385427 57.39069806 20.54445565 58.5 19.33984375 C58.97501953 18.79521484 59.45003906 18.25058594 59.93945312 17.68945312 C62.71815527 15.82580108 64.44314468 15.97180561 67.71875 16.49609375 C70.00935339 18.20136247 71.80848002 19.76589472 73.7734375 21.7890625 C74.31984894 22.33210526 74.86626038 22.87514801 75.42922974 23.43464661 C76.57764643 24.5833616 77.7186338 25.73954622 78.85253906 26.90258789 C80.58993528 28.67969185 82.35481083 30.42554796 84.125 32.16992188 C85.23874112 33.29122142 86.35078089 34.41421395 87.4609375 35.5390625 C87.98895966 36.06010056 88.51698181 36.58113861 89.06100464 37.1179657 C91.29797902 39.44322137 92.63473496 40.98125849 93.16162109 44.20996094 C92.51524433 47.54660485 90.79873774 49.1271388 88.46875 51.55859375 C87.67984375 52.39519531 86.8909375 53.23179687 86.078125 54.09375 C84.56393054 55.63552085 83.0251611 57.1537454 81.45703125 58.640625 C79.50163577 60.40827281 79.50163577 60.40827281 79.15625 63.12109375 C79.98286801 68.08080179 82.30119481 72.12722615 84.71875 76.49609375 C85.33919189 76.51067627 85.95963379 76.52525879 86.59887695 76.5402832 C89.41029633 76.61475963 92.22052749 76.71141939 95.03125 76.80859375 C96.00771484 76.83115234 96.98417969 76.85371094 97.99023438 76.87695312 C98.92802734 76.91240234 99.86582031 76.94785156 100.83203125 76.984375 C101.69610596 77.01055908 102.56018066 77.03674316 103.45043945 77.0637207 C105.71875 77.49609375 105.71875 77.49609375 107.49926758 78.52416992 C109.44249857 81.6664075 109.14572819 84.97467765 109.1171875 88.55859375 C109.12149277 89.74014038 109.12149277 89.74014038 109.12588501 90.94555664 C109.12792522 92.6098706 109.12239832 94.27420856 109.10986328 95.93847656 C109.09380809 98.48687322 109.10971244 101.03368396 109.12890625 103.58203125 C109.12692381 105.19922225 109.12308011 106.81641227 109.1171875 108.43359375 C109.12326019 109.19615479 109.12933289 109.95871582 109.1355896 110.74438477 C109.09640167 113.69011537 109.06590935 115.9346385 107.49267578 118.47900391 C105.1812029 119.80429926 103.59769463 119.84978617 100.9375 119.83203125 C100.01324219 119.84492188 99.08898437 119.8578125 98.13671875 119.87109375 C96.19139056 119.87109375 94.24604669 119.86328087 92.30078125 119.84765625 C89.69005827 119.89135036 87.27628988 119.96588263 84.71875 120.49609375 C82.50819885 122.73265083 82.50819885 122.73265083 81.71875 125.49609375 C81.326875 126.30046875 80.935 127.10484375 80.53125 127.93359375 C79.48943583 131.21931537 79.11191669 133.05737165 79.71875 136.49609375 C82.23172927 140.10985932 85.29755007 143.17971117 88.51953125 146.1640625 C92.60420763 149.95627995 92.60420763 149.95627995 93.20751953 152.79956055 C92.50227606 156.69037682 90.17813669 158.77186595 87.4609375 161.453125 C86.64993088 162.27486458 86.64993088 162.27486458 85.82254028 163.11320496 C84.6769997 164.26651977 83.52503339 165.41348272 82.3671875 166.55444336 C80.60129963 168.30112622 78.86667257 170.07510293 77.1328125 171.85351562 C76.01479246 172.97182607 74.89505485 174.08842254 73.7734375 175.203125 C73.25756073 175.73428421 72.74168396 176.26544342 72.21017456 176.81269836 C69.67098734 179.27224035 68.06784543 180.44021809 64.54150391 181.00463867 C61.45368635 180.44834011 60.52532805 179.97446343 58.5 177.65234375 C57.95988281 177.06582031 57.41976562 176.47929687 56.86328125 175.875 C55.76692708 174.62239583 54.67057292 173.36979167 53.57421875 172.1171875 C50.2547764 168.4469434 50.2547764 168.4469434 45.6484375 166.93359375 C42.50117284 167.53786857 40.15921721 168.47421958 37.34375 169.99609375 C36.46976562 170.46015625 35.59578125 170.92421875 34.6953125 171.40234375 C34.04304688 171.76328125 33.39078125 172.12421875 32.71875 172.49609375 C32.70416748 173.11653564 32.68958496 173.73697754 32.67456055 174.3762207 C32.60008412 177.18764008 32.50342436 179.99787124 32.40625 182.80859375 C32.38369141 183.78505859 32.36113281 184.76152344 32.33789062 185.76757812 C32.30244141 186.70537109 32.26699219 187.64316406 32.23046875 188.609375 C32.20428467 189.47344971 32.17810059 190.33752441 32.15112305 191.2277832 C31.71875 193.49609375 31.71875 193.49609375 30.7043457 195.27441406 C27.50205856 197.24468885 24.08761625 196.94334755 20.4375 196.9296875 C19.2226593 196.93755028 19.2226593 196.93755028 17.98327637 196.9455719 C16.27190294 196.95199192 14.56048538 196.95065532 12.84912109 196.94213867 C10.22804411 196.93362394 7.60914308 196.96239497 4.98828125 196.99414062 C3.32552149 196.9957526 1.66275786 196.99517517 0 196.9921875 C-0.78443481 197.00342148 -1.56886963 197.01465546 -2.3770752 197.02622986 C-7.74868615 196.95728239 -7.74868615 196.95728239 -10.2668457 194.77661133 C-11.41093119 192.20455295 -11.70727757 190.32238957 -11.79296875 187.51171875 C-11.82841797 186.57714844 -11.86386719 185.64257812 -11.90039062 184.6796875 C-11.92294922 183.71160156 -11.94550781 182.74351562 -11.96875 181.74609375 C-12.00291016 180.76253906 -12.03707031 179.77898437 -12.07226562 178.765625 C-12.15460273 176.34256176 -12.22379838 173.91985377 -12.28125 171.49609375 C-13.35983276 171.03589844 -13.35983276 171.03589844 -14.46020508 170.56640625 C-16.17529297 169.83463542 -17.89038086 169.10286458 -19.60546875 168.37109375 C-22.56287752 167.4039995 -24.21361174 166.8958009 -27.28125 167.49609375 C-29.96004462 169.91576791 -32.28027436 172.42771621 -34.64453125 175.14257812 C-37.24471823 177.9622614 -39.02332775 179.39572447 -42.6640625 180.8125 C-48.13658977 180.33380161 -50.55523746 177.31193216 -54.28125 173.49609375 C-55.32901611 172.48168213 -55.32901611 172.48168213 -56.39794922 171.44677734 C-58.52859373 169.38160093 -60.62646908 167.28757428 -62.71875 165.18359375 C-63.79672852 164.11141602 -63.79672852 164.11141602 -64.89648438 163.01757812 C-65.57904297 162.33373047 -66.26160156 161.64988281 -66.96484375 160.9453125 C-67.57900146 160.33002686 -68.19315918 159.71474121 -68.82592773 159.08081055 C-70.78043913 156.95252109 -71.25630916 155.63996733 -71.75390625 152.76953125 C-70.97377084 147.36660999 -66.84592618 144.90137658 -62.81445312 141.52734375 C-59.40490659 138.56665285 -59.40490659 138.56665285 -58.05151367 134.43823242 C-58.58620136 129.68868903 -60.13807969 125.69670757 -62.28125 121.49609375 C-64.68387939 120.29477905 -66.31777538 120.3249267 -69 120.25 C-70.39798828 120.20069336 -70.39798828 120.20069336 -71.82421875 120.15039062 C-73.79545563 120.08919635 -75.76681751 120.03190401 -77.73828125 119.97851562 C-78.67027344 119.94435547 -79.60226563 119.91019531 -80.5625 119.875 C-81.41908203 119.84994385 -82.27566406 119.8248877 -83.15820312 119.79907227 C-85.28125 119.49609375 -85.28125 119.49609375 -87.28125 117.49609375 C-87.48115227 114.65069233 -87.56101976 111.90471591 -87.546875 109.05859375 C-87.54878845 108.22271729 -87.5507019 107.38684082 -87.55267334 106.52563477 C-87.55403536 104.75699564 -87.55033776 102.98834652 -87.54199219 101.21972656 C-87.53129275 98.50693381 -87.54188676 95.79480331 -87.5546875 93.08203125 C-87.55336591 91.36588395 -87.55080352 89.64973706 -87.546875 87.93359375 C-87.55092346 87.11898682 -87.55497192 86.30437988 -87.55914307 85.46508789 C-87.51116928 79.72601303 -87.51116928 79.72601303 -85.28125 77.49609375 C-83.15820313 77.19311523 -83.15820313 77.19311523 -80.5625 77.1171875 C-79.63050781 77.08302734 -78.69851562 77.04886719 -77.73828125 77.01367188 C-76.27455078 76.9740332 -76.27455078 76.9740332 -74.78125 76.93359375 C-72.85403918 76.8737662 -70.92694109 76.81015015 -69 76.7421875 C-68.14341797 76.71825928 -67.28683594 76.69433105 -66.40429688 76.66967773 C-64.22735269 76.62449491 -64.22735269 76.62449491 -62.28125 75.49609375 C-61.14272448 73.33020865 -61.14272448 73.33020865 -60.15625 70.74609375 C-59.80304687 69.885 -59.44984375 69.02390625 -59.0859375 68.13671875 C-57.9210261 64.36274254 -57.9210261 64.36274254 -58.28125 60.49609375 C-60.73783147 57.46229879 -63.74112437 54.97654246 -66.66015625 52.40039062 C-69.40276694 49.8536807 -71.0678988 48.23195783 -72.125 44.5859375 C-70.81497683 39.78858411 -67.70560201 36.99110957 -64.28125 33.49609375 C-63.63285156 32.79629395 -62.98445313 32.09649414 -62.31640625 31.37548828 C-60.33409559 29.23959762 -58.31331784 27.14710792 -56.28125 25.05859375 C-55.60835937 24.33994141 -54.93546875 23.62128906 -54.2421875 22.88085938 C-51.06852411 19.6367382 -48.93894241 17.71671209 -44.578125 16.25390625 C-40.36804883 16.56317725 -39.28085285 17.67385149 -36.53125 20.80859375 C-34.13986589 23.47172605 -32.27475706 25.50042237 -29.28125 27.49609375 C-29.28125 28.15609375 -29.28125 28.81609375 -29.28125 29.49609375 C-22.80579497 30.0591768 -18.15165792 28.08583973 -12.28125 25.49609375 C-12.26666748 24.88088867 -12.25208496 24.26568359 -12.23706055 23.63183594 C-12.16244423 20.83596521 -12.0658302 18.04127088 -11.96875 15.24609375 C-11.94619141 14.27800781 -11.92363281 13.30992187 -11.90039062 12.3125 C-11.8472168 10.91064453 -11.8472168 10.91064453 -11.79296875 9.48046875 C-11.76678467 8.62163086 -11.74060059 7.76279297 -11.71362305 6.87792969 C-10.44907224 -0.08816727 -6.25346083 -0.08955651 0 0 Z " fill="#FDC363" transform="translate(111.28125,297.50390625)"/>
<path d="M0 0 C5.6299691 5.2346734 9.70191177 11.96000432 10.07446289 19.77636719 C10.06922607 20.63520508 10.06398926 21.49404297 10.05859375 22.37890625 C10.05537109 23.31347656 10.05214844 24.24804688 10.04882812 25.2109375 C10.03625977 26.66306641 10.03625977 26.66306641 10.0234375 28.14453125 C10.01892578 29.12808594 10.01441406 30.11164063 10.00976562 31.125 C9.99800233 33.54823916 9.98156434 35.97135398 9.9609375 38.39453125 C10.57614258 38.37358398 11.19134766 38.35263672 11.82519531 38.33105469 C14.62027559 38.24776108 17.41509465 38.19583112 20.2109375 38.14453125 C21.17902344 38.11101562 22.14710938 38.0775 23.14453125 38.04296875 C24.07910156 38.03007812 25.01367188 38.0171875 25.9765625 38.00390625 C27.26481934 37.97248535 27.26481934 37.97248535 28.57910156 37.94042969 C31.92087146 38.57754449 32.90417821 39.69093346 34.9609375 42.39453125 C35.34537369 45.20259048 35.48841971 47.61529511 35.44677734 50.42016602 C35.45057404 51.2254776 35.45437073 52.03078918 35.45828247 52.86050415 C35.46568515 55.51937956 35.44431195 58.17715942 35.421875 60.8359375 C35.41949051 62.68391288 35.41858526 64.53189071 35.4190979 66.37986755 C35.41597049 70.25103958 35.39940853 74.12184109 35.37255859 77.99291992 C35.33855509 82.95865366 35.33093072 87.92398071 35.33244896 92.88981724 C35.33190554 96.70476677 35.32094333 100.51962714 35.30644608 104.33454704 C35.3000758 106.16580467 35.29613864 107.99707242 35.29465866 109.82834053 C35.29032942 112.3851664 35.27283744 114.9415582 35.25146484 117.49829102 C35.25237122 118.25733231 35.25327759 119.0163736 35.25421143 119.79841614 C35.20842337 123.53833255 35.08946768 125.20173598 32.9609375 128.39453125 C30.5859375 129.26953125 30.5859375 129.26953125 27.9609375 129.39453125 C25.82525635 128.36540222 25.82525635 128.36540222 23.9609375 126.39453125 C23.57850717 123.78362298 23.45393069 121.59468 23.50683594 118.9855957 C23.50625183 118.23413269 23.50566772 117.48266968 23.50506592 116.70843506 C23.50785283 114.22442437 23.53897172 111.74161354 23.5703125 109.2578125 C23.57777277 107.53574784 23.58346671 105.81367469 23.58746338 104.09159851 C23.60273664 99.55891484 23.64203275 95.02674381 23.6862793 90.4942627 C23.72719569 85.86929255 23.74546661 81.24423958 23.765625 76.61914062 C23.80852559 67.54404559 23.87679719 58.46933105 23.9609375 49.39453125 C19.3409375 49.39453125 14.7209375 49.39453125 9.9609375 49.39453125 C9.97107722 50.40537529 9.98121695 51.41621933 9.99166393 52.45769501 C10.23636211 77.1064197 10.41685725 101.75498601 10.53087139 126.40467072 C10.58748029 138.32539665 10.66459332 150.24531801 10.79077148 162.16552734 C10.90075576 172.56087639 10.97145887 182.9556425 10.99591094 193.35155725 C11.01019465 198.85139333 11.04352036 204.34956244 11.12396812 209.84886169 C11.19923885 215.03682869 11.2215464 220.22245987 11.20512199 225.4109211 C11.20812168 227.30392262 11.22964746 229.19701104 11.27219772 231.08953667 C11.55810844 244.47489064 8.83108852 252.45765686 0.25709593 262.80789852 C-1.483008 264.93796671 -3.02493877 267.18594051 -4.5625 269.46484375 C-5.51209023 270.81706024 -6.46255715 272.16866168 -7.4140625 273.51953125 C-7.89488281 274.20789063 -8.37570312 274.89625 -8.87109375 275.60546875 C-9.80486385 276.93147291 -10.74925377 278.25008735 -11.70605469 279.55957031 C-12.58520538 280.76977116 -13.43595691 282.00118994 -14.25488281 283.25292969 C-15.453125 284.94921875 -15.453125 284.94921875 -18.0390625 287.39453125 C-21.46875 287.796875 -21.46875 287.796875 -25.0390625 286.39453125 C-27.52625714 283.86007217 -29.30799864 280.97194524 -31.1640625 277.95703125 C-32.16270521 276.39329636 -33.16554556 274.83223675 -34.171875 273.2734375 C-34.70496308 272.41695114 -35.23805117 271.56046478 -35.78729343 270.67802429 C-37.51141464 268.16393878 -39.21629926 265.98472128 -41.20635128 263.7011261 C-51.53021668 251.46451552 -52.8891642 241.77690782 -52.57836914 226.12109375 C-52.5812574 223.83911293 -52.58982984 221.55713341 -52.60359192 219.27519226 C-52.62424527 213.1319734 -52.56478824 206.99196396 -52.48890996 200.8492775 C-52.42205511 194.39855196 -52.42661026 187.9478412 -52.42222595 181.49682617 C-52.40475723 170.67646716 -52.3392701 159.85747303 -52.23950195 149.03759766 C-52.13713964 137.92781195 -52.07351295 126.81874511 -52.05493164 115.70849609 C-52.05377785 115.02290918 -52.05262406 114.33732226 -52.0514353 113.63095999 C-52.04914068 112.24960161 -52.04685223 110.86824323 -52.04457 109.48688483 C-52.04344017 108.80531074 -52.04231034 108.12373664 -52.04114628 107.42150879 C-52.04003588 106.74154036 -52.03892547 106.06157193 -52.03778142 105.36099839 C-52.01798987 94.08873494 -51.96266361 82.81661285 -51.90506816 71.544487 C-51.88675096 67.71376649 -51.87281149 63.88304737 -51.85933113 60.05230713 C-51.83579711 54.03056482 -51.79077954 48.00933426 -51.72930717 41.98786354 C-51.70969325 39.78289514 -51.69667302 37.57785639 -51.69084167 35.37280846 C-51.68155239 32.35521744 -51.64766025 29.33885056 -51.6075592 26.3215332 C-51.61034301 25.45634882 -51.61312682 24.59116444 -51.61599499 23.69976234 C-51.45305856 15.33499149 -48.78261616 7.21284667 -43.0078125 0.99609375 C-29.94996813 -9.62635901 -13.28187133 -10.45756536 0 0 Z " fill="#291361" transform="translate(464.0390625,144.60546875)"/>
<path d="M0 0 C7.13498675 -0.07431881 14.26974668 -0.12868276 21.4050293 -0.16479492 C23.83085049 -0.17985409 26.25664458 -0.20030562 28.68237305 -0.22631836 C32.17503562 -0.26282703 35.66733725 -0.27975553 39.16015625 -0.29296875 C40.23959 -0.30845261 41.31902374 -0.32393646 42.4311676 -0.33988953 C49.96519587 -0.34156234 55.01046359 0.34263431 60.8125 5.5 C64.17973635 9.34827011 65.24998661 11.3477206 65.25726891 16.39679432 C65.2637178 17.52420404 65.27016669 18.65161377 65.276811 19.81318742 C65.2721652 21.67910501 65.2721652 21.67910501 65.26742554 23.5827179 C65.27195665 24.90003519 65.27648776 26.21735248 65.28115618 27.57458848 C65.29342319 31.23896013 65.29312138 34.90324075 65.29076743 38.56762826 C65.29036019 42.51661685 65.30138955 46.46557588 65.31088257 50.41455078 C65.32751412 58.15456794 65.3329931 65.89455463 65.33410732 73.63458816 C65.33505684 79.92499279 65.3391623 86.21538735 65.34550858 92.5057888 C65.36312736 110.33169717 65.37234652 128.15758142 65.37084763 145.98349855 C65.37076772 146.94502557 65.3706878 147.90655259 65.37060547 148.8972168 C65.37052371 149.859915 65.37044195 150.82261321 65.37035771 151.81448408 C65.36954477 167.41724305 65.38868275 183.01990549 65.4168822 198.62263653 C65.44559418 214.63504309 65.45942341 230.64740255 65.45769465 246.65983552 C65.45703013 255.65294257 65.46254927 264.64594846 65.48405075 273.63903236 C65.50224047 281.29619114 65.50662818 288.95320289 65.4930319 296.61037389 C65.48649083 300.51798017 65.48642574 304.42530421 65.5037384 308.33288383 C65.51942456 311.91011882 65.51665179 315.48684677 65.49917014 319.06406906 C65.49463119 320.97125518 65.50979265 322.87845676 65.52564943 324.78558236 C65.47411264 331.14662414 65.36818733 335.21037579 61 340 C56.107945 344.4028495 52.65661082 346.252015 46.05218506 346.24050903 C44.83504822 346.24325836 43.61791138 346.24600769 42.3638916 346.24884033 C41.01830956 346.24176257 39.67272851 346.23449296 38.32714844 346.22705078 C36.90785734 346.22648653 35.48856566 346.22680349 34.0692749 346.22793579 C30.21834376 346.22850978 26.36753714 346.21674804 22.51663494 346.20278788 C18.49142271 346.1902882 14.46620765 346.18911062 10.440979 346.18673706 C2.81956851 346.18052005 -4.80178462 346.16410624 -12.42316985 346.14403808 C-21.10023577 346.12168596 -29.77730442 346.11068738 -38.45439196 346.10064721 C-56.30296049 346.07974021 -74.15147563 346.04455993 -92 346 C-91.525625 345.13375 -91.05125 344.2675 -90.5625 343.375 C-88.03434812 337.61510681 -88.24907171 331.19243805 -88 325 C-86.99778758 324.99503478 -86.99778758 324.99503478 -85.97532845 324.98996925 C-69.73478668 324.90882818 -53.49434756 324.81676524 -37.25393867 324.71247292 C-29.40026939 324.66230312 -21.54661078 324.61586082 -13.69287109 324.578125 C-6.84934383 324.54523369 -0.00589831 324.50541853 6.83753884 324.45720994 C10.46271242 324.43191631 14.08783158 324.41014365 17.71306992 324.39665604 C21.75528506 324.38148756 25.79723868 324.35086452 29.83935547 324.31884766 C31.04776093 324.31668747 32.25616638 324.31452728 33.50119019 324.31230164 C34.59777954 324.30113815 35.6943689 324.28997467 36.82418823 324.2784729 C37.78100935 324.27294214 38.73783047 324.26741138 39.72364616 324.26171303 C42.19828144 324.21619525 42.19828144 324.21619525 44 322 C44.30324646 319.7518034 44.30324646 319.7518034 44.25168228 317.10551453 C44.25950552 315.54431365 44.25950552 315.54431365 44.26748681 313.95157337 C44.26079465 312.22310437 44.26079465 312.22310437 44.25396729 310.4597168 C44.25708727 309.24252048 44.26020725 308.02532415 44.26342177 306.7712431 C44.27004157 303.38187628 44.26762833 299.99272958 44.26144934 296.60337591 C44.2569405 292.9523424 44.26390078 289.3013287 44.26940918 285.65029907 C44.27832166 278.49368067 44.27637294 271.33710412 44.2705839 264.18048406 C44.26607469 258.36628071 44.26545129 252.55208912 44.26763153 246.73788452 C44.26809123 245.49857069 44.26809123 245.49857069 44.26856022 244.23422021 C44.26919964 242.55600873 44.26984807 240.87779726 44.2705054 239.1995858 C44.27621413 223.44773142 44.26964231 207.69590028 44.25890467 191.94404972 C44.24996866 178.41613869 44.25152055 164.88826197 44.26074219 151.36035156 C44.27143525 135.66644761 44.27566475 119.97256405 44.26951766 104.27865696 C44.26888053 102.60647647 44.26825179 100.93429598 44.26763153 99.26211548 C44.26732298 98.43928202 44.26701443 97.61644856 44.26669653 96.76868075 C44.26496669 90.95868707 44.26789089 85.14870628 44.27259064 79.3387146 C44.27818879 72.26225276 44.27670558 65.18583531 44.26602915 58.10937858 C44.260758 54.49601659 44.25874008 50.88272873 44.26532745 47.26936722 C44.27234756 43.35963025 44.26398892 39.45001576 44.25396729 35.5402832 C44.25842873 34.38797053 44.26289017 33.23565786 44.26748681 32.04842663 C44.26227132 31.00762605 44.25705582 29.96682547 44.25168228 28.89448547 C44.25135758 27.99107579 44.25103287 27.08766611 44.25069833 26.15688038 C44.20147623 23.78764995 44.20147623 23.78764995 42 22 C40.10388475 21.67087115 40.10388475 21.67087115 37.91748047 21.68115234 C37.07675995 21.66128265 36.23603943 21.64141296 35.36984253 21.62094116 C34.46146637 21.60938995 33.55309021 21.59783875 32.6171875 21.5859375 C31.22308151 21.55688828 31.22308151 21.55688828 29.80081177 21.5272522 C26.8256352 21.46736315 23.85042012 21.4210339 20.875 21.375 C18.86066 21.33682879 16.84633646 21.29777757 14.83203125 21.2578125 C9.88810543 21.15999369 4.94435989 21.08049943 0 21 C0 14.07 0 7.14 0 0 Z " fill="#69CCF2" transform="translate(318,76)"/>
<path d="M0 0 C13.53 0 27.06 0 41 0 C41 63.69 41 127.38 41 193 C27.47 193 13.94 193 0 193 C0 129.31 0 65.62 0 0 Z " fill="#FCC363" transform="translate(423,193)"/>
<path d="M0 0 C1.12411285 -0.0087616 2.24822571 -0.01752319 3.40640259 -0.02655029 C7.12158829 -0.04855387 10.83558347 -0.0339866 14.55078125 -0.01708984 C17.13240792 -0.02045766 19.71403305 -0.02530999 22.2956543 -0.03158569 C27.70606036 -0.03895841 33.11601913 -0.02871523 38.52636719 -0.00488281 C44.77562809 0.02232764 51.02407333 0.01351288 57.27331448 -0.01401484 C63.2924823 -0.03946475 69.31125201 -0.0367384 75.33047485 -0.02210617 C77.88856114 -0.01876906 80.44666822 -0.02286985 83.00473022 -0.03450394 C86.57923645 -0.04719283 90.15217327 -0.02785962 93.7265625 0 C94.78541656 -0.01012115 95.84427063 -0.02024231 96.93521118 -0.03067017 C101.64094851 0.03732971 104.09902353 0.10759115 108.0198822 2.87477112 C109.97347988 5.81269522 110.49043672 7.17093899 110.49438477 10.64916992 C110.50691788 11.61689835 110.51945099 12.58462677 110.53236389 13.5816803 C110.51910568 14.61514084 110.50584747 15.64860138 110.4921875 16.71337891 C110.49459946 17.78442368 110.49701141 18.85546844 110.49949646 19.95896912 C110.49851847 22.21918446 110.48513655 24.4794239 110.46020508 26.73950195 C110.42586509 30.20102126 110.43955796 33.65999222 110.45898438 37.12158203 C110.45208682 39.31885853 110.44241526 41.51612844 110.4296875 43.71337891 C110.4371273 45.26660606 110.4371273 45.26660606 110.44471741 46.85121155 C110.32717576 54.01056274 110.32717576 54.01056274 107.95288086 57.26782227 C104.80634542 59.34455772 103.06848698 59.7749416 99.32853699 59.79414368 C98.3737999 59.80129898 97.41906281 59.80845428 96.43539429 59.81582642 C95.38445587 59.81851532 94.33351746 59.82120422 93.25073242 59.82397461 C92.14656479 59.83054581 91.04239716 59.837117 89.9047699 59.84388733 C86.23859597 59.86365227 82.57246305 59.8752895 78.90625 59.88525391 C77.0317942 59.8913672 77.0317942 59.8913672 75.1194706 59.89760399 C69.18904334 59.91632346 63.25862918 59.93088675 57.32817954 59.93921596 C50.48363237 59.9489878 43.63940865 59.97530538 36.79497546 60.01571685 C30.86616994 60.04952022 24.93744366 60.06136135 19.0085392 60.06542015 C16.48671588 60.07030022 13.96489637 60.08195428 11.44313622 60.10045815 C7.91649815 60.12472871 4.39070917 60.12390631 0.86401367 60.11694336 C-0.18085205 60.12975342 -1.22571777 60.14256348 -2.30224609 60.15576172 C-9.38560072 60.10469684 -9.38560072 60.10469684 -13.26176453 57.74259949 C-15.96721238 54.71873414 -16.26841254 53.05653526 -16.32958984 49.09301758 C-16.34565277 48.148311 -16.3617157 47.20360443 -16.37826538 46.23027039 C-16.42269137 41.90783373 -16.46377908 37.58555098 -16.48681641 33.26293945 C-16.50337971 30.98256223 -16.5306744 28.702237 -16.56884766 26.42211914 C-16.62358656 23.13611895 -16.64548632 19.851336 -16.66015625 16.56494141 C-16.68282562 15.54708054 -16.705495 14.52921967 -16.72885132 13.48051453 C-16.72600128 12.52635147 -16.72315125 11.57218842 -16.72021484 10.58911133 C-16.7283017 9.75353195 -16.73638855 8.91795258 -16.74472046 8.05705261 C-14.56589453 -0.57967427 -7.33899687 -0.07015048 0 0 Z " fill="#FEC564" transform="translate(198.13671875,56.35302734375)"/>
<path d="M0 0 C1.06087326 0.00007553 2.12174652 0.00015106 3.21476746 0.00022888 C4.3585939 0.00539017 5.50242035 0.01055145 6.6809082 0.01586914 C8.43912651 0.01799156 8.43912651 0.01799156 10.23286438 0.02015686 C13.98249852 0.02576151 17.73207331 0.03831483 21.48168945 0.05102539 C24.02140213 0.05603979 26.56111575 0.0606028 29.10083008 0.06469727 C35.3319728 0.07573245 41.56307106 0.09300025 47.79418945 0.11352539 C47.79418945 7.04352539 47.79418945 13.97352539 47.79418945 21.11352539 C43.15549805 21.2044043 43.15549805 21.2044043 38.4230957 21.29711914 C35.44121729 21.35885648 32.45937882 21.42226571 29.47753906 21.48583984 C27.39879888 21.52925873 25.32002142 21.57092851 23.24121094 21.61083984 C20.260058 21.6683746 17.27909396 21.73211658 14.2980957 21.79711914 C12.89497887 21.82218788 12.89497887 21.82218788 11.46351624 21.84776306 C10.17229103 21.87768089 10.17229103 21.87768089 8.85498047 21.90820312 C7.71247581 21.93151955 7.71247581 21.93151955 6.54689026 21.95530701 C4.76683939 21.92731868 4.76683939 21.92731868 3.79418945 23.11352539 C3.684118 25.55422498 3.63923159 27.96724025 3.63597107 30.40895081 C3.63103309 31.18159663 3.62609511 31.95424245 3.6210075 32.75030178 C3.60555606 35.35908562 3.59725132 37.96784471 3.58886719 40.57666016 C3.57929466 42.43885519 3.56928496 44.30104802 3.55886841 46.16323853 C3.53174547 51.23531757 3.51077605 56.30740599 3.49086642 61.37951779 C3.46905228 66.67400413 3.4416413 71.96846133 3.41481018 77.26292419 C3.36482127 87.29621851 3.31990552 97.32952895 3.27678782 107.3628549 C3.2274683 118.78226892 3.17253063 130.20165373 3.11710823 141.62103951 C3.00319306 165.11850776 2.89657419 188.61600432 2.79418945 212.11352539 C-4.13581055 212.11352539 -11.06581055 212.11352539 -18.20581055 212.11352539 C-18.29837786 186.14041853 -18.36977437 160.16735135 -18.41305923 134.19411278 C-18.4336907 122.13447838 -18.4618226 110.0749483 -18.50756836 98.01538086 C-18.54741807 87.50513567 -18.5732391 76.99496603 -18.58216453 66.48464739 C-18.5873824 60.9186999 -18.5996587 55.35296857 -18.62873077 49.7870903 C-18.65587023 44.5487997 -18.66425844 39.31081441 -18.65824127 34.07246017 C-18.65934216 32.14957012 -18.6673047 30.22666991 -18.68263245 28.30384064 C-18.7025374 25.67812719 -18.69774804 23.0535661 -18.68682861 20.42782593 C-18.69847998 19.66711332 -18.71013134 18.90640071 -18.72213578 18.1226362 C-18.65531817 12.17744489 -16.68925128 8.66982991 -12.6081543 4.46899414 C-8.27021552 1.01021096 -5.47231386 -0.01299837 0 0 Z " fill="#A5E0F7" transform="translate(125.205810546875,75.886474609375)"/>
<path d="M0 0 C9.26003023 5.60246343 15.98541396 13.73588227 19.34765625 24.0390625 C21.94531801 35.829647 19.77220559 47.03213554 13.83203125 57.3515625 C9.12547044 64.15550329 2.67630869 69.00074593 -5 72 C-6.35158203 72.53173828 -6.35158203 72.53173828 -7.73046875 73.07421875 C-17.30871557 75.78633882 -28.36217664 75.02932458 -37.28515625 70.671875 C-47.43990289 64.41830441 -54.88320771 55.62098122 -58 44 C-58.21251975 41.1820433 -58.33438176 38.50086856 -58.3125 35.6875 C-58.30686035 34.93275391 -58.3012207 34.17800781 -58.29541016 33.40039062 C-58.03936965 21.64787793 -53.31869001 12.90305576 -44.875 4.75 C-32.02562539 -5.93999551 -14.94554239 -7.36383867 0 0 Z " fill="#FDFAFE" transform="translate(141,361)"/>
<path d="M0 0 C2.7109375 2.01171875 2.7109375 2.01171875 5.375 4.6875 C6.26960938 5.55761719 7.16421875 6.42773438 8.0859375 7.32421875 C10 10 10 10 9.71484375 12.38256836 C9.05047628 14.81517891 8.31946892 17.17848935 7.4765625 19.5546875 C-6.74358323 60.40584789 -5.76831915 103.4011903 12.58203125 142.8125 C14.68680507 147.54389239 14.68680507 147.54389239 15 150 C13.45430819 152.60329092 11.16042993 154.58073086 9 156.6875 C8.43410156 157.28111328 7.86820313 157.87472656 7.28515625 158.48632812 C4.47218283 161.28335498 2.30121497 162.8832792 -1.4375 164.33203125 C-6.86127342 163.82652605 -9.30402477 160.78507698 -13 157 C-14.04776611 155.98558838 -14.04776611 155.98558838 -15.11669922 154.95068359 C-17.24734373 152.88550718 -19.34521908 150.79148053 -21.4375 148.6875 C-22.51547852 147.61532227 -22.51547852 147.61532227 -23.61523438 146.52148438 C-24.29779297 145.83763672 -24.98035156 145.15378906 -25.68359375 144.44921875 C-26.29775146 143.83393311 -26.91190918 143.21864746 -27.54467773 142.5847168 C-29.49918913 140.45642734 -29.97505916 139.14387358 -30.47265625 136.2734375 C-29.69252084 130.87051624 -25.56467618 128.40528283 -21.53320312 125.03125 C-18.12365659 122.0705591 -18.12365659 122.0705591 -16.77026367 117.94213867 C-17.30495136 113.19259528 -18.85682969 109.20061382 -21 105 C-23.40262939 103.7986853 -25.03652538 103.82883295 -27.71875 103.75390625 C-29.11673828 103.70459961 -29.11673828 103.70459961 -30.54296875 103.65429688 C-32.51420563 103.5931026 -34.48556751 103.53581026 -36.45703125 103.48242188 C-37.38902344 103.44826172 -38.32101563 103.41410156 -39.28125 103.37890625 C-40.13783203 103.3538501 -40.99441406 103.32879395 -41.87695312 103.30297852 C-44 103 -44 103 -46 101 C-46.19990227 98.15459858 -46.27976976 95.40862216 -46.265625 92.5625 C-46.26753845 91.72662354 -46.2694519 90.89074707 -46.27142334 90.02954102 C-46.27278536 88.26090189 -46.26908776 86.49225277 -46.26074219 84.72363281 C-46.25004275 82.01084006 -46.26063676 79.29870956 -46.2734375 76.5859375 C-46.27211591 74.8697902 -46.26955352 73.15364331 -46.265625 71.4375 C-46.26967346 70.62289307 -46.27372192 69.80828613 -46.27789307 68.96899414 C-46.22991928 63.22991928 -46.22991928 63.22991928 -44 61 C-41.87695313 60.69702148 -41.87695313 60.69702148 -39.28125 60.62109375 C-38.34925781 60.58693359 -37.41726562 60.55277344 -36.45703125 60.51757812 C-35.48121094 60.49115234 -34.50539063 60.46472656 -33.5 60.4375 C-31.57278918 60.37767245 -29.64569109 60.3140564 -27.71875 60.24609375 C-26.86216797 60.22216553 -26.00558594 60.1982373 -25.12304688 60.17358398 C-22.94610269 60.12840116 -22.94610269 60.12840116 -21 59 C-19.86147448 56.8341149 -19.86147448 56.8341149 -18.875 54.25 C-18.52179687 53.38890625 -18.16859375 52.5278125 -17.8046875 51.640625 C-16.6397761 47.86664879 -16.6397761 47.86664879 -17 44 C-19.45658147 40.96620504 -22.45987437 38.48044871 -25.37890625 35.90429688 C-28.12151694 33.35758695 -29.7866488 31.73586408 -30.84375 28.08984375 C-29.53275301 23.28892422 -26.44669898 20.48067254 -23 17 C-21.98752197 15.95030029 -21.98752197 15.95030029 -20.95458984 14.87939453 C-18.88561388 12.75277059 -16.79131909 10.65462038 -14.6875 8.5625 C-13.97271484 7.84384766 -13.25792969 7.12519531 -12.52148438 6.38476562 C-11.83763672 5.70220703 -11.15378906 5.01964844 -10.44921875 4.31640625 C-9.83393311 3.70224854 -9.21864746 3.08809082 -8.5847168 2.45532227 C-5.79023627 -0.11098468 -3.73064168 -0.48917636 0 0 Z " fill="#FDFCFD" transform="translate(70,314)"/>
<path d="M0 0 C11.54887428 7.32873098 17.92697937 18.62786187 22.00390625 31.43359375 C24.53029972 44.92453485 21.29034615 57.98270063 13.8828125 69.37890625 C6.72724033 79.67091032 -4.43001698 87.8560833 -16.98828125 90.1328125 C-33.17724364 91.8635979 -45.48552207 89.31797244 -58.60546875 79.51953125 C-64.40433216 74.79122724 -68.1979671 69.13813675 -71.60546875 62.51953125 C-72.02183594 61.73320312 -72.43820313 60.946875 -72.8671875 60.13671875 C-77.63879895 49.4550061 -77.44983884 35.31306886 -73.54296875 24.39453125 C-66.99596585 10.07181622 -57.18802379 0.49723658 -42.60546875 -5.48046875 C-28.10694622 -10.33540258 -12.96076281 -7.62070603 0 0 Z M-57.60546875 16.51953125 C-65.24278479 26.89804164 -66.99647615 37.91167693 -65.60546875 50.51953125 C-63.01160674 61.54974057 -55.93845598 70.08356482 -46.41796875 76.01953125 C-36.86853825 81.46729923 -26.02216293 82.01360595 -15.3671875 79.8671875 C-3.78776272 76.05105458 4.01805244 67.98164205 9.70703125 57.45703125 C13.78468426 48.69261525 13.83516648 36.96484112 10.89453125 27.83203125 C6.45738808 17.17357895 -1.54185634 9.35934668 -11.90234375 4.42578125 C-28.82855978 -1.70855208 -45.82688078 3.29481771 -57.60546875 16.51953125 Z " fill="#2D1762" transform="translate(148.60546875,354.48046875)"/>
<path d="M0 0 C3.3 0 6.6 0 10 0 C10 63.03 10 126.06 10 191 C6.7 191 3.4 191 0 191 C0 127.97 0 64.94 0 0 Z " fill="#FFDCA1" transform="translate(423,194)"/>
<path d="M0 0 C1.08969671 -0.00573832 1.08969671 -0.00573832 2.20140749 -0.01159257 C4.64814322 -0.02195358 7.09464563 -0.01792462 9.54139709 -0.01396179 C11.29049905 -0.01830656 13.03959909 -0.02348892 14.78869629 -0.02944946 C19.54897938 -0.04287613 24.30918326 -0.04341406 29.06948161 -0.04088616 C33.03837495 -0.03981891 37.0072521 -0.0446935 40.97614199 -0.04949158 C50.33677312 -0.06059949 59.69736412 -0.06101699 69.05799866 -0.05497742 C78.72603114 -0.04893557 88.39391817 -0.06125106 98.06192583 -0.08254749 C106.35239974 -0.1001404 114.64282725 -0.1061685 122.93331915 -0.10290974 C127.88931165 -0.10109302 132.84520041 -0.10377164 137.80117607 -0.11762428 C142.46083332 -0.1301605 147.12026318 -0.12829862 151.77991676 -0.11521339 C153.49280752 -0.11283884 155.20571407 -0.11561357 156.91858673 -0.12383652 C159.25173718 -0.13423189 161.58411443 -0.12626229 163.91723633 -0.11352539 C165.22450652 -0.11369313 166.53177671 -0.11386087 167.87866116 -0.1140337 C171.02210999 0.26069641 171.02210999 0.26069641 172.97788334 1.62392902 C174.02210999 3.26069641 174.02210999 3.26069641 173.83460999 5.82319641 C173.02210999 8.26069641 173.02210999 8.26069641 171.02210999 10.26069641 C168.02011967 10.515172 168.02011967 10.515172 164.08218384 10.52139282 C163.35980292 10.52521837 162.637422 10.52904392 161.89315075 10.53298539 C159.46023414 10.54334618 157.02755218 10.53931748 154.59461975 10.53535461 C152.85536988 10.5396994 151.11612192 10.54488176 149.37687683 10.55084229 C144.64345226 10.56426882 139.91010736 10.5648069 135.17666745 10.56227899 C131.23014203 10.56121173 127.28363289 10.56608634 123.33711094 10.57088441 C114.02921745 10.58199227 104.72136432 10.58240984 95.41346741 10.57637024 C85.79996618 10.57032841 76.18661123 10.58264386 66.57313496 10.60394031 C58.32936974 10.62153334 50.08565118 10.6275613 41.84186786 10.62430257 C36.91382081 10.62248586 31.9858781 10.62516428 27.05784798 10.63901711 C22.42445512 10.65155351 17.79129093 10.64969126 13.15790176 10.63660622 C11.45468635 10.6342317 9.75145505 10.63700625 8.04825783 10.64522934 C5.72824306 10.65562507 3.40900583 10.64765484 1.08901978 10.63491821 C-0.860824 10.63516983 -0.860824 10.63516983 -2.85005856 10.63542652 C-5.97789001 10.26069641 -5.97789001 10.26069641 -7.90004063 8.8974638 C-9.42553655 6.5809231 -9.32557412 4.9726324 -8.97789001 2.26069641 C-6.09129694 -0.62589667 -4.04450649 0.00635312 0 0 Z " fill="#2F1A66" transform="translate(162.97789001464844,150.7393035888672)"/>
<path d="M0 0 C17.49 0 34.98 0 53 0 C53 6.93 53 13.86 53 21 C48.36130859 21.09087891 48.36130859 21.09087891 43.62890625 21.18359375 C40.64702783 21.24533109 37.66518936 21.30874032 34.68334961 21.37231445 C32.60460943 21.41573334 30.52583197 21.45740312 28.44702148 21.49731445 C25.46586855 21.55484921 22.48490451 21.61859119 19.50390625 21.68359375 C18.10078941 21.70866249 18.10078941 21.70866249 16.66932678 21.73423767 C15.37810158 21.7641555 15.37810158 21.7641555 14.06079102 21.79467773 C12.91828636 21.81799416 12.91828636 21.81799416 11.75270081 21.84178162 C9.97264994 21.81379329 9.97264994 21.81379329 9 23 C8.88992855 25.44069959 8.84504214 27.85371486 8.84178162 30.29542542 C8.83684364 31.06807124 8.83190566 31.84071706 8.82681805 32.63677639 C8.8113666 35.24556023 8.80306187 37.85431932 8.79467773 40.46313477 C8.78510521 42.3253298 8.77509551 44.18752263 8.76467896 46.04971313 C8.73755601 51.12179218 8.71658659 56.1938806 8.69667697 61.2659924 C8.67486283 66.56047874 8.64745185 71.85493594 8.62062073 77.1493988 C8.57063181 87.18269312 8.52571606 97.21600356 8.48259836 107.24932951 C8.43327884 118.66874353 8.37834118 130.08812833 8.32291877 141.50751412 C8.20900361 165.00498216 8.10218544 188.50247823 8 212 C6.68 212 5.36 212 4 212 C3.90654433 186.06144032 3.83601466 160.12290588 3.79275131 134.18421173 C3.77212915 122.14032868 3.74401501 110.09655027 3.69824219 98.05273438 C3.65836402 87.55492187 3.63256467 77.05718514 3.62364602 66.55929899 C3.61843298 61.00111224 3.60618733 55.44314228 3.57707977 49.88502502 C3.54989538 44.65165278 3.54156121 39.41858629 3.54756927 34.18515015 C3.5464704 32.26632525 3.53853465 30.34748995 3.5231781 28.4287262 C3.50320276 25.80371454 3.50808807 23.17984914 3.51898193 20.55480957 C3.50733057 19.79992264 3.4956792 19.04503572 3.48367476 18.26727343 C3.55440436 11.93864289 5.46932767 6.53067233 10 2 C6.7 1.67 3.4 1.34 0 1 C0 0.67 0 0.34 0 0 Z " fill="#67C6ED" transform="translate(120,76)"/>
<path d="M0 0 C1.09688039 -0.00467997 1.09688039 -0.00467997 2.21591997 -0.00945449 C4.67881744 -0.01746452 7.14147058 -0.01109927 9.60437012 -0.00482178 C11.36494593 -0.00753031 13.12552062 -0.01109046 14.88609314 -0.01544189 C19.6773066 -0.02458457 24.46843425 -0.02101393 29.25964928 -0.01468372 C34.26489881 -0.00963343 39.27014081 -0.01431246 44.27539062 -0.01745605 C52.68210169 -0.02109854 61.08877766 -0.01628921 69.4954834 -0.0067749 C79.22599173 0.00411019 88.95641625 0.00058481 98.68692255 -0.01042771 C107.02918292 -0.01949256 115.371418 -0.02078981 123.7136817 -0.01555037 C128.70147418 -0.01242625 133.68922723 -0.01203343 138.67701721 -0.01862335 C143.36536154 -0.02438454 148.05359744 -0.02042252 152.74193001 -0.00883484 C154.4665261 -0.00618166 156.19113127 -0.00696449 157.9157238 -0.01136017 C160.26221868 -0.01679126 162.60836177 -0.01001151 164.95483398 0 C166.27040031 0.00075405 167.58596664 0.0015081 168.94139862 0.002285 C171.97741699 0.25396729 171.97741699 0.25396729 173.97741699 2.25396729 C173.40923517 7.8221491 173.40923517 7.8221491 171.97741699 9.25396729 C169.67844959 9.35548785 167.37629448 9.3847507 165.0750885 9.38768005 C164.34468934 9.38994561 163.61429017 9.39221117 162.8617577 9.39454538 C160.39581915 9.40091369 157.92993516 9.40005421 155.46398926 9.39923096 C153.70356169 9.40222068 151.94313478 9.40562277 150.18270874 9.40940857 C145.38732857 9.41827167 140.59196622 9.42058765 135.79657865 9.42122436 C131.80030723 9.42217151 127.80404 9.42584755 123.80777019 9.42939645 C114.38344133 9.43754975 104.95912202 9.43997988 95.53479004 9.43927002 C85.79692358 9.43866896 76.05911248 9.44922443 66.32126004 9.46501368 C57.97477823 9.47806716 49.62831456 9.48345484 41.28182262 9.48281461 C36.290656 9.48255898 31.29953853 9.48544581 26.30838203 9.49599266 C21.61595607 9.50563689 16.92362662 9.50577825 12.23119736 9.49847603 C10.50498629 9.49742559 8.77876934 9.49982004 7.05256844 9.50583649 C4.70383989 9.513495 2.3554498 9.50895285 0.00672913 9.50120544 C-1.31013602 9.50175021 -2.62700117 9.50229498 -3.98377132 9.50285625 C-7.02258301 9.25396729 -7.02258301 9.25396729 -9.02258301 7.25396729 C-9.27258301 4.75396729 -9.27258301 4.75396729 -9.02258301 2.25396729 C-6.12813215 -0.64048358 -4.05486024 0.00232415 0 0 Z " fill="#281261" transform="translate(163.0225830078125,233.74603271484375)"/>
<path d="M0 0 C7.15444669 5.1573105 12.88485011 11.66531704 16 20 C16 21.32 16 22.64 16 24 C-7.76 24 -31.52 24 -56 24 C-54.11280693 14.56403465 -49.43190906 6.94730369 -41.5703125 1.234375 C-28.53607044 -6.92688294 -13.45626966 -7.88406989 0 0 Z " fill="#FCF8FC" transform="translate(265,23)"/>
<path d="M0 0 C5.65500393 3.43101919 8.94150414 7.80532056 11.32421875 13.97265625 C11.87286097 17.70079147 11.80529659 21.27840662 11.63671875 25.03515625 C11.53359375 28.31453125 11.43046875 31.59390625 11.32421875 34.97265625 C-2.20578125 34.97265625 -15.73578125 34.97265625 -29.67578125 34.97265625 C-29.77890625 31.50765625 -29.88203125 28.04265625 -29.98828125 24.47265625 C-30.03380127 23.39693359 -30.07932129 22.32121094 -30.1262207 21.21289062 C-30.22229571 14.49383881 -29.0456036 10.14441303 -24.67578125 4.97265625 C-17.69768882 -1.49484405 -9.14721726 -3.51199728 0 0 Z " fill="#FAF7FB" transform="translate(452.67578125,149.02734375)"/>
<path d="M0 0 C1.12631836 0.02416992 1.12631836 0.02416992 2.27539062 0.04882812 C3.4287793 0.11166992 3.4287793 0.11166992 4.60546875 0.17578125 C5.39373047 0.19833984 6.18199219 0.22089844 6.99414062 0.24414062 C8.92790804 0.30273964 10.86069042 0.39241298 12.79296875 0.48828125 C12.63129211 1.04810699 12.46961548 1.60793274 12.30303955 2.1847229 C11.75948919 4.63948008 11.65217849 6.83218894 11.63183594 9.34521484 C11.62222839 10.30656342 11.61262085 11.26791199 11.60272217 12.25839233 C11.59634735 13.80691391 11.59634735 13.80691391 11.58984375 15.38671875 C11.58129364 16.9882933 11.58129364 16.9882933 11.5725708 18.6222229 C11.56313009 20.87997448 11.55659051 23.13773979 11.55273438 25.39550781 C11.5430249 28.84334395 11.51199055 32.29058486 11.48046875 35.73828125 C11.47393873 37.93359022 11.46868825 40.12890344 11.46484375 42.32421875 C11.45249695 43.35251801 11.44015015 44.38081726 11.4274292 45.4402771 C11.44436845 50.9020489 11.74546296 54.7460404 14.79296875 59.48828125 C11.89612717 59.59657439 9.00335856 59.67572079 6.10546875 59.73828125 C5.28884766 59.77179688 4.47222656 59.8053125 3.63085938 59.83984375 C-0.50995132 59.90690141 -2.63451975 59.84674899 -6.2265625 57.59765625 C-9.05248741 54.5877954 -9.33781712 52.95666622 -9.39990234 48.93432617 C-9.41596527 47.9896196 -9.4320282 47.04491302 -9.44857788 46.07157898 C-9.49300387 41.74914232 -9.53409158 37.42685958 -9.55712891 33.10424805 C-9.57369221 30.82387082 -9.6009869 28.54354559 -9.63916016 26.26342773 C-9.69389906 22.97742755 -9.71579882 19.69264459 -9.73046875 16.40625 C-9.75313812 15.38838913 -9.7758075 14.37052826 -9.79916382 13.32182312 C-9.78508403 8.60805592 -9.75263711 6.24592045 -6.93725586 2.33642578 C-4.24770397 0.51581344 -3.16915298 -0.12096004 0 0 Z " fill="#FCD9A0" transform="translate(191.20703125,56.51171875)"/>
<path d="M0 0 C0.88190002 -0.00708481 1.76380005 -0.01416962 2.67242432 -0.02146912 C3.64234818 -0.0189917 4.61227203 -0.01651428 5.61158752 -0.01396179 C6.63118561 -0.01907272 7.65078369 -0.02418365 8.70127869 -0.02944946 C12.08493353 -0.04339443 15.46838581 -0.042385 18.85206604 -0.04008484 C21.19614743 -0.04396908 23.5402281 -0.04830318 25.88430786 -0.05307007 C30.80302713 -0.06054285 35.72167464 -0.06023334 40.64039612 -0.05497742 C46.9536455 -0.04918153 53.26660164 -0.06611179 59.57980251 -0.08932209 C64.42242154 -0.10403114 69.26496948 -0.10493498 74.10760689 -0.10181236 C76.43569075 -0.102327 78.76377844 -0.10759132 81.09184074 -0.11762428 C84.34341028 -0.12991643 87.59440271 -0.12324026 90.84596252 -0.11161804 C91.81386215 -0.11926178 92.78176178 -0.12690552 93.7789917 -0.13478088 C95.10607147 -0.12425941 95.10607147 -0.12425941 96.45996094 -0.11352539 C97.22890403 -0.11369313 97.99784712 -0.11386087 98.79009151 -0.1140337 C101.34171704 0.36324497 102.25809902 1.19648337 103.79347229 3.26069641 C103.54894105 6.60262333 103.18803672 7.86613199 100.79347229 10.26069641 C98.93155003 10.515172 98.93155003 10.515172 96.62490845 10.52139282 C95.31467964 10.53202003 95.31467964 10.53202003 93.97798157 10.54286194 C93.01740845 10.54038452 92.05683533 10.5379071 91.06715393 10.53535461 C90.05730942 10.54046555 89.0474649 10.54557648 88.00701904 10.55084229 C84.65582924 10.56478691 81.30484397 10.56377785 77.95362854 10.56147766 C75.63196739 10.56536192 73.31030696 10.56969603 70.98864746 10.57446289 C66.11700642 10.5819356 61.24543783 10.58162622 56.37379456 10.57637024 C50.12107823 10.57057438 43.86865799 10.58750456 37.61599064 10.61071491 C32.81969459 10.62542422 28.0234703 10.62632777 23.22715569 10.62320518 C20.92140046 10.62371981 18.61564137 10.62898391 16.30990791 10.63901711 C13.08946952 10.65130975 9.86961377 10.64463279 6.64918518 10.63301086 C5.69063629 10.6406546 4.7320874 10.64829834 3.74449158 10.65617371 C2.86818588 10.64915939 1.99188019 10.64214508 1.08901978 10.63491821 C0.32745103 10.63508595 -0.43411772 10.6352537 -1.21876431 10.63542652 C-3.76035058 10.15629057 -4.65177191 9.29479113 -6.20652771 7.26069641 C-6.51902771 4.69819641 -6.51902771 4.69819641 -6.20652771 2.26069641 C-3.80380916 -0.14202214 -3.2768505 0.00875259 0 0 Z " fill="#2F1A66" transform="translate(233.20652770996094,190.7393035888672)"/>
<path d="M0 0 C0.89175934 -0.00563965 1.78351868 -0.0112793 2.70230103 -0.01708984 C3.68314667 -0.01304138 4.66399231 -0.00899292 5.67456055 -0.00482178 C7.22099747 -0.01007874 7.22099747 -0.01007874 8.79867554 -0.01544189 C12.21961118 -0.02427208 15.64034141 -0.01840546 19.0612793 -0.01165771 C21.43017619 -0.01300399 23.79907281 -0.01494421 26.16796875 -0.01745605 C31.13796616 -0.02040907 36.10789178 -0.01610395 41.07788086 -0.0067749 C47.46067518 0.00461967 53.84330133 -0.00193885 60.22608948 -0.01391983 C65.11927568 -0.02113363 70.01242175 -0.01885271 74.90560913 -0.01366425 C77.25963358 -0.01232642 79.61366163 -0.01398008 81.96768188 -0.01862335 C85.25288598 -0.02368067 88.53781456 -0.01598943 91.82299805 -0.00482178 C92.80384369 -0.00887024 93.78468933 -0.0129187 94.79525757 -0.01708984 C95.68701691 -0.0114502 96.57877625 -0.00581055 97.49755859 0 C98.27479782 0.00075405 99.05203705 0.0015081 99.85282898 0.002285 C101.7487793 0.25396729 101.7487793 0.25396729 103.7487793 2.25396729 C103.18059748 7.8221491 103.18059748 7.8221491 101.7487793 9.25396729 C100.37468153 9.35366612 98.9955198 9.38471303 97.61781311 9.38768005 C96.2822361 9.39407753 96.2822361 9.39407753 94.91967773 9.40060425 C93.93523682 9.40015106 92.9507959 9.39969788 91.93652344 9.39923096 C90.90571152 9.40258957 89.8748996 9.40594818 88.81285095 9.40940857 C85.38653375 9.41895059 81.96026523 9.42086329 78.53393555 9.42193604 C76.16360961 9.42514629 73.79328388 9.42851018 71.42295837 9.43202209 C66.44700664 9.43802147 61.47107229 9.43986116 56.49511719 9.43927002 C50.10445946 9.43916834 43.71391269 9.45282332 37.32328129 9.47004223 C32.4258116 9.48113529 27.52836896 9.48319006 22.63088799 9.48266029 C20.27406875 9.48384438 17.91724891 9.48828995 15.56044197 9.49599266 C12.27035777 9.50573857 8.98051743 9.50293596 5.69042969 9.49688721 C4.708013 9.50250671 3.72559631 9.50812622 2.71340942 9.51391602 C1.82020493 9.50972153 0.92700043 9.50552704 0.00672913 9.50120544 C-0.77180892 9.50175021 -1.55034697 9.50229498 -2.35247707 9.50285625 C-4.2512207 9.25396729 -4.2512207 9.25396729 -6.2512207 7.25396729 C-6.5012207 4.75396729 -6.5012207 4.75396729 -6.2512207 2.25396729 C-3.83876674 -0.15848667 -3.29405015 0.00319578 0 0 Z " fill="#281361" transform="translate(233.251220703125,273.74603271484375)"/>
<path d="M0 0 C1.66699196 -0.01429802 1.66699196 -0.01429802 3.36766052 -0.02888489 C5.17545738 -0.02751778 5.17545738 -0.02751778 7.01977539 -0.02612305 C8.86932579 -0.03255074 8.86932579 -0.03255074 10.75624084 -0.03910828 C14.03817875 -0.04633604 17.31993422 -0.04321695 20.60186768 -0.03753662 C22.6139247 -0.03784127 24.62568728 -0.04787627 26.63769531 -0.06152344 C30.49436358 -0.08595224 34.35053958 -0.09018108 38.20727539 -0.08862305 C40.0120359 -0.10243767 40.0120359 -0.10243767 41.85325623 -0.11653137 C43.52497643 -0.10718819 43.52497643 -0.10718819 45.23046875 -0.09765625 C46.70367836 -0.09860039 46.70367836 -0.09860039 48.20664978 -0.0995636 C50.67993164 0.2746582 50.67993164 0.2746582 52.53224182 1.63777161 C53.67993164 3.2746582 53.67993164 3.2746582 53.49243164 5.8371582 C52.67993164 8.2746582 52.67993164 8.2746582 50.67993164 10.2746582 C48.37159729 10.53535461 48.37159729 10.53535461 45.45166016 10.54931641 C44.36035294 10.55884842 43.26904572 10.56838043 42.14466858 10.57820129 C40.96134445 10.57728989 39.77802032 10.57637848 38.55883789 10.57543945 C36.74258156 10.58186714 36.74258156 10.58186714 34.88963318 10.58842468 C32.32486599 10.59417656 29.76008248 10.59466197 27.1953125 10.59033203 C23.26216907 10.58717405 19.32977874 10.61061499 15.39672852 10.63598633 C12.90909926 10.63825934 10.42146797 10.63896281 7.93383789 10.63793945 C6.75253799 10.6471492 5.5712381 10.65635895 4.35414124 10.66584778 C3.25968185 10.65961899 2.16522247 10.6533902 1.03759766 10.64697266 C-0.40896461 10.64791679 -0.40896461 10.64791679 -1.88475037 10.64888 C-4.32006836 10.2746582 -4.32006836 10.2746582 -6.13539124 8.9115448 C-7.80183136 6.60899885 -7.67555836 5.04748022 -7.32006836 2.2746582 C-4.71689211 -0.32851804 -3.62525711 0.01702051 0 0 Z " fill="#301A67" transform="translate(161.320068359375,190.725341796875)"/>
<path d="M0 0 C0.89432739 -0.00630432 1.78865479 -0.01260864 2.71008301 -0.019104 C4.16166809 -0.01303131 4.16166809 -0.01303131 5.64257812 -0.00683594 C6.6338269 -0.00874939 7.62507568 -0.01066284 8.6463623 -0.01263428 C10.7445501 -0.01399679 12.84274631 -0.01029576 14.94091797 -0.00195312 C18.16067358 0.00874535 21.37987121 -0.0018463 24.59960938 -0.01464844 C26.63476686 -0.01332685 28.669924 -0.01076449 30.70507812 -0.00683594 C31.67280151 -0.0108844 32.6405249 -0.01493286 33.63757324 -0.019104 C34.53190063 -0.01279968 35.42622803 -0.00649536 36.34765625 0 C37.13660278 0.00159119 37.92554932 0.00318237 38.73840332 0.00482178 C40.67382812 0.25878906 40.67382812 0.25878906 42.67382812 2.25878906 C42.93261719 4.19824219 42.93261719 4.19824219 42.93945312 6.54003906 C42.94332031 7.80267578 42.94332031 7.80267578 42.94726562 9.09082031 C42.93953125 9.97125 42.93179688 10.85167969 42.92382812 11.75878906 C42.93542969 13.07943359 42.93542969 13.07943359 42.94726562 14.42675781 C42.9446875 15.26851562 42.94210937 16.11027344 42.93945312 16.97753906 C42.93719727 17.75033203 42.93494141 18.523125 42.93261719 19.31933594 C42.67382812 21.25878906 42.67382812 21.25878906 40.67382812 23.25878906 C38.17382812 23.50878906 38.17382812 23.50878906 35.67382812 23.25878906 C33.67382812 21.25878906 33.67382812 21.25878906 33.47851562 18.43847656 C33.50171875 17.34792969 33.52492188 16.25738281 33.54882812 15.13378906 C33.566875 14.03808594 33.58492188 12.94238281 33.60351562 11.81347656 C33.62671875 10.97042969 33.64992188 10.12738281 33.67382812 9.25878906 C31.96283936 9.27449951 31.96283936 9.27449951 30.21728516 9.29052734 C25.99433518 9.32666623 21.77139893 9.34966718 17.54833984 9.36865234 C15.7188894 9.37872391 13.8894551 9.39238182 12.06005859 9.40966797 C9.43387879 9.43386583 6.80791138 9.44526038 4.18164062 9.45410156 C2.95031906 9.46958542 2.95031906 9.46958542 1.69412231 9.48538208 C-0.3140633 9.4857809 -2.32172569 9.38128446 -4.32617188 9.25878906 C-6.32617188 7.25878906 -6.32617188 7.25878906 -6.57617188 4.75878906 C-6.12894412 0.2865115 -3.97570606 0.0080184 0 0 Z " fill="#FFFEFE" transform="translate(254.326171875,67.7412109375)"/>
<path d="M0 0 C1.13457642 -0.00953201 2.26915283 -0.01906403 3.43811035 -0.02888489 C4.66831909 -0.02797348 5.89852783 -0.02706207 7.16601562 -0.02612305 C9.0524176 -0.03255074 9.0524176 -0.03255074 10.97692871 -0.03910828 C13.64019681 -0.04486036 16.30307842 -0.04627663 18.96630859 -0.04101562 C22.38308126 -0.03521638 25.79931266 -0.05216038 29.21599579 -0.0753603 C32.47016539 -0.09361211 35.72430401 -0.08991299 38.97851562 -0.08862305 C40.82382874 -0.10243767 40.82382874 -0.10243767 42.7064209 -0.11653137 C44.40828552 -0.10718819 44.40828552 -0.10718819 46.14453125 -0.09765625 C47.14665649 -0.09828568 48.14878174 -0.0989151 49.18127441 -0.0995636 C49.97030151 0.0239296 50.75932861 0.14742279 51.57226562 0.2746582 C53.57226562 3.2746582 53.57226562 3.2746582 53.25976562 5.8996582 C52.57226562 8.2746582 52.57226562 8.2746582 51.57226562 9.2746582 C49.80326528 9.37882613 48.03010855 9.4131964 46.25805664 9.41992188 C45.12340469 9.42630173 43.98875275 9.43268158 42.81971741 9.43925476 C41.58434738 9.44036758 40.34897736 9.44148041 39.07617188 9.44262695 C37.81715561 9.44595535 36.55813934 9.44928375 35.26097107 9.45271301 C32.59183227 9.45778764 29.92279522 9.46055234 27.25366211 9.45996094 C23.82913847 9.4598593 20.40482212 9.47351021 16.98034763 9.49073315 C13.72062999 9.50450937 10.46091471 9.50394146 7.20117188 9.50512695 C5.96782608 9.51231247 4.73448029 9.51949799 3.46376038 9.52690125 C1.75705421 9.5222863 1.75705421 9.5222863 0.01586914 9.51757812 C-1.49184303 9.51971565 -1.49184303 9.51971565 -3.03001404 9.52189636 C-5.42773438 9.2746582 -5.42773438 9.2746582 -7.42773438 7.2746582 C-7.67773438 4.7746582 -7.67773438 4.7746582 -7.42773438 2.2746582 C-4.80565294 -0.34742323 -3.65555795 0.01680687 0 0 Z " fill="#291361" transform="translate(161.427734375,273.725341796875)"/>
<path d="M0 0 C10.23 0 20.46 0 31 0 C28.84224238 4.31551524 26.29684757 8.10179576 23.5625 12.0625 C23.07201172 12.78244141 22.58152344 13.50238281 22.07617188 14.24414062 C21.59857422 14.93830078 21.12097656 15.63246094 20.62890625 16.34765625 C20.19650635 16.97679932 19.76410645 17.60594238 19.31860352 18.25415039 C18.00000577 19.99999236 16.58272348 21.49307135 15 23 C13.24834503 20.6262055 11.49863966 18.2510142 9.75 15.875 C9.01330078 14.87726563 9.01330078 14.87726563 8.26171875 13.859375 C0 2.6234375 0 2.6234375 0 0 Z " fill="#F2EEF6" transform="translate(428,395)"/>
</svg>
